<!DOCTYPE svg PUBLIC "-//W3C//DTD SVG 1.1//EN" "http://www.w3.org/Graphics/SVG/1.1/DTD/svg11.dtd">
<!-- Uploaded to: SVG Repo, www.svgrepo.com, Transformed by: SVG Repo Mixer Tools -->
<svg width="800px" height="800px" viewBox="-1.6 -1.6 19.20 19.20" xmlns="http://www.w3.org/2000/svg" fill="#000000" stroke="#000000" stroke-width="0.00016" transform="matrix(-1, 0, 0, 1, 0, 0)rotate(0)">
<g id="SVGRepo_bgCarrier" stroke-width="0">
<path transform="translate(-1.6, -1.6), scale(0.6)" d="M16,31.61976419389248C18.235581048200856,31.36761645904478,19.134839195370127,28.464412596342072,20.970276893856543,27.163424680088212C22.43309258334623,26.126557268406508,24.39580187372599,25.963302983326486,25.70641809829015,24.7396981113462C27.052073960839056,23.483379870687134,27.89710866043243,21.798623535590423,28.55728989445713,20.080110818015555C29.23544548613416,18.31480918760314,30.093526190977045,16.398307784372534,29.613515861865316,14.569161826061492C29.1298174947426,12.725962087211228,26.79474957197972,11.961187257021656,25.975226566319662,10.24080025670784C25.06651060495067,8.33317458162659,26.019489153031518,5.711630927895986,24.634122447580488,4.1161499640159C23.303716352132795,2.583965314879439,20.909664534833226,2.6523924124626124,18.945092759969146,2.1444279262421766C16.917244160248337,1.6201024293224837,14.78739848994672,0.33060450556249066,12.824989869656061,1.062751742884771C10.803976282921003,1.8167636743548368,10.363428350604082,4.580492911321414,8.708183579069788,5.9636757108368315C7.184507116406847,7.2369152409809745,4.546131798606233,7.094299644639797,3.550907182746073,8.8125129107918C2.5560019300393035,10.530174809947717,3.500608750644625,12.72205434735677,3.6469716199452655,14.70164439889914C3.7744474459286366,16.425783028693854,3.781936074239188,18.152784240514773,4.361905666948299,19.781446075425066C4.934498138430162,21.389391590125875,6.001344768094744,22.720105865179576,6.996243432796973,24.10701882698283C8.076784493601451,25.61331937412338,9.080781661244082,27.156223496245897,10.504149170454827,28.34388306705042C12.159765760247637,29.725331551525446,13.857323584288453,31.86143335867989,16,31.61976419389248" fill="#6356e5" strokewidth="0"/>
</g>
<g id="SVGRepo_tracerCarrier" stroke-linecap="round" stroke-linejoin="round"/>
<g id="SVGRepo_iconCarrier"> <path d="m 8 1 c -1.65625 0 -3 1.34375 -3 3 s 1.34375 3 3 3 s 3 -1.34375 3 -3 s -1.34375 -3 -3 -3 z m -1.5 7 c -2.492188 0 -4.5 2.007812 -4.5 4.5 v 0.5 c 0 1.109375 0.890625 2 2 2 h 8 c 1.109375 0 2 -0.890625 2 -2 v -0.5 c 0 -2.492188 -2.007812 -4.5 -4.5 -4.5 z m 0 0" fill="#2e3436"/> </g>
</svg>